<svg xmlns="http://www.w3.org/2000/svg" width="1086.999" height="1086.999" viewBox="0 0 1086.999 1086.999">
  <path id="Subtraction_5" data-name="Subtraction 5" d="M741.311,6142.809c-17.33,0-34.857-.837-52.1-2.487-17.29-1.655-34.687-4.167-51.709-7.463-17.116-3.312-34.253-7.5-50.937-12.435-16.8-4.973-33.552-10.832-49.779-17.412-16.373-6.64-32.6-14.172-48.231-22.385-15.8-8.3-31.377-17.507-46.3-27.361a545.067,545.067,0,0,1-43.982-32.334,551.688,551.688,0,0,1-78.587-78.587,545.174,545.174,0,0,1-32.335-43.982c-9.853-14.924-19.058-30.5-27.36-46.3-8.215-15.633-15.747-31.861-22.386-48.233-6.577-16.217-12.435-32.963-17.412-49.777-4.939-16.689-9.123-33.826-12.436-50.938-3.3-17.041-5.809-34.437-7.462-51.708-1.65-17.237-2.487-34.765-2.487-52.1s.837-34.86,2.487-52.1c1.653-17.268,4.163-34.666,7.462-51.709,3.315-17.114,7.5-34.251,12.436-50.937,4.976-16.81,10.834-33.558,17.412-49.779,6.642-16.375,14.173-32.6,22.386-48.231,8.309-15.811,17.514-31.389,27.36-46.3,5.429-8.223,11.188-16.441,17.116-24.427h76.515V5192.4c5.672-5.033,11.49-9.984,17.291-14.716a545.171,545.171,0,0,1,43.982-32.335c14.916-9.847,30.494-19.053,46.3-27.359,15.633-8.216,31.861-15.747,48.233-22.386,16.221-6.579,32.968-12.437,49.777-17.412,16.68-4.937,33.818-9.121,50.937-12.437,17.039-3.3,34.436-5.809,51.709-7.462,17.239-1.649,34.766-2.486,52.1-2.486s34.857.837,52.1,2.486c17.272,1.653,34.67,4.163,51.709,7.462,17.119,3.315,34.257,7.5,50.937,12.437,16.809,4.976,33.557,10.834,49.777,17.412,16.372,6.639,32.6,14.17,48.233,22.386,15.808,8.306,31.386,17.512,46.3,27.359a545.165,545.165,0,0,1,43.982,32.335,551.763,551.763,0,0,1,78.587,78.587,545.158,545.158,0,0,1,32.335,43.983c9.847,14.913,19.052,30.49,27.36,46.3,8.213,15.628,15.745,31.855,22.386,48.231,6.581,16.228,12.438,32.976,17.41,49.779,4.94,16.685,9.124,33.823,12.437,50.937,3.3,17.017,5.806,34.414,7.464,51.709,1.65,17.237,2.486,34.764,2.486,52.1s-.837,34.859-2.486,52.1c-1.657,17.289-4.167,34.686-7.462,51.708-3.314,17.112-7.5,34.249-12.437,50.938-4.977,16.813-10.835,33.56-17.412,49.777-6.641,16.375-14.172,32.6-22.386,48.233-8.3,15.8-17.507,31.375-27.36,46.3a545.013,545.013,0,0,1-32.335,43.982,551.7,551.7,0,0,1-78.587,78.587,545.092,545.092,0,0,1-43.982,32.334c-14.925,9.854-30.5,19.059-46.3,27.361-15.633,8.214-31.86,15.746-48.233,22.385-16.23,6.582-32.977,12.44-49.777,17.412-16.686,4.939-33.824,9.123-50.937,12.435-17.022,3.3-34.419,5.808-51.709,7.463C776.168,6141.972,758.64,6142.809,741.311,6142.809Zm0-1026.733c-15.422,0-31.021.745-46.364,2.212-15.388,1.475-30.871,3.71-46.022,6.642-15.231,2.949-30.483,6.672-45.334,11.069-14.959,4.428-29.864,9.64-44.3,15.495-14.573,5.91-29.015,12.613-42.926,19.923-14.071,7.4-27.936,15.589-41.207,24.351a484.519,484.519,0,0,0-39.144,28.777,491.388,491.388,0,0,0-69.944,69.943,484.738,484.738,0,0,0-28.778,39.146c-8.753,13.255-16.946,27.119-24.351,41.207-7.307,13.9-14.01,28.347-19.923,42.926-5.853,14.435-11.066,29.339-15.495,44.3-4.4,14.858-8.122,30.111-11.069,45.334-2.933,15.15-5.168,30.634-6.642,46.021-1.468,15.341-2.213,30.94-2.213,46.364s.745,31.024,2.213,46.364c1.47,15.366,3.705,30.851,6.642,46.022,2.947,15.226,6.671,30.478,11.069,45.334,4.428,14.962,9.641,29.868,15.495,44.3,5.908,14.569,12.612,29.012,19.923,42.926,7.4,14.08,15.592,27.943,24.351,41.207a484.9,484.9,0,0,0,28.778,39.145,490.755,490.755,0,0,0,69.944,69.942,484.9,484.9,0,0,0,39.144,28.779c13.266,8.759,27.13,16.952,41.207,24.35,13.913,7.311,28.355,14.014,42.926,19.922,14.432,5.853,29.337,11.067,44.3,15.5,14.856,4.4,30.108,8.122,45.334,11.07,15.172,2.937,30.656,5.17,46.022,6.642,15.338,1.468,30.937,2.212,46.364,2.212s31.026-.745,46.364-2.212c15.365-1.471,30.849-3.7,46.022-6.642,15.225-2.948,30.478-6.672,45.333-11.07,14.964-4.428,29.869-9.642,44.3-15.5,14.577-5.912,29.019-12.613,42.926-19.922,14.083-7.4,27.948-15.6,41.207-24.35a484.811,484.811,0,0,0,39.144-28.779,490.757,490.757,0,0,0,69.944-69.942,484.974,484.974,0,0,0,28.778-39.145c8.765-13.276,16.957-27.139,24.351-41.207,7.314-13.919,14.017-28.361,19.922-42.926,5.852-14.428,11.066-29.332,15.5-44.3,4.393-14.838,8.116-30.091,11.069-45.334,2.933-15.152,5.168-30.636,6.642-46.022,1.468-15.338,2.213-30.937,2.213-46.364s-.745-31.025-2.213-46.364c-1.474-15.387-3.709-30.871-6.642-46.021-2.952-15.243-6.676-30.5-11.069-45.334-4.425-14.952-9.639-29.857-15.5-44.3-5.911-14.579-12.614-29.021-19.923-42.926-7.4-14.072-15.588-27.937-24.351-41.207a484.444,484.444,0,0,0-28.778-39.146,491.246,491.246,0,0,0-69.942-69.943,485.115,485.115,0,0,0-39.144-28.777c-13.265-8.759-27.129-16.951-41.207-24.351-13.905-7.307-28.348-14.01-42.926-19.923-14.437-5.854-29.342-11.067-44.3-15.495-14.85-4.4-30.1-8.12-45.333-11.069-15.15-2.932-30.634-5.167-46.022-6.642C772.332,5116.82,756.732,5116.076,741.311,5116.076Z" transform="translate(-197.811 -5055.81)" fill="#fbfbfb" opacity="0.1"/>
</svg>
