<svg width="149" height="64" fill="none" xmlns="http://www.w3.org/2000/svg"><path d="M.908 62.044v-2.867H.216v-1.073h.692v-1.495h1.248v1.495h1.465v1.073H2.156v2.67a.59.59 0 0 0 .669.679c.27.002.536-.062.775-.186v1.021a2.14 2.14 0 0 1-1.124.279 1.392 1.392 0 0 1-1.568-1.596zM4.431 60.847v-.021a2.7 2.7 0 0 1 2.564-2.833h.091a2.632 2.632 0 0 1 2.609 2.928c0 .114-.01.227-.021.35h-4a1.52 1.52 0 0 0 1.567 1.381 1.975 1.975 0 0 0 1.475-.649l.738.649a2.753 2.753 0 0 1-2.226 1.021 2.712 2.712 0 0 1-2.797-2.826zm4.031-.4a1.413 1.413 0 0 0-1.381-1.434 1.476 1.476 0 0 0-1.412 1.434h2.793zM10.496 62.839l.556-.845a3.07 3.07 0 0 0 1.785.67c.536 0 .844-.227.844-.59v-.021c0-.423-.577-.568-1.216-.764-.8-.227-1.7-.556-1.7-1.587v-.021a1.738 1.738 0 0 1 1.794-1.68c.049 0 .1 0 .145.01a3.781 3.781 0 0 1 2 .618l-.494.885a3.172 3.172 0 0 0-1.536-.515c-.485 0-.763.238-.763.537v.028c0 .4.59.568 1.228.773.794.248 1.691.608 1.691 1.587v.021c0 1.145-.885 1.711-2.02 1.711a3.757 3.757 0 0 1-2.314-.817zM16.352 62.044v-2.867h-.692v-1.073h.692v-1.495H17.6v1.495h1.464v1.073H17.6v2.67a.59.59 0 0 0 .669.679c.27.002.536-.062.775-.186v1.021a2.14 2.14 0 0 1-1.124.279 1.392 1.392 0 0 1-1.568-1.596z" fill="#FAFDFF"/><path d="M142.305 37.119h.615v-2.93h1.115v-.57h-2.845v.57h1.115v2.93zM144.673 37.119h.605v-2.5l1.095 1.64h.02l1.105-1.65v2.51h.615v-3.5h-.655l-1.065 1.655-1.065-1.655h-.655v3.5z" fill="#FAFAFA"/><path d="M.193 34.942h3.421l3.793 6.1 3.792-6.1h3.421V49.37h-3.154v-9.419l-4.06 6.163h-.083l-4.02-6.1v9.357H.191l.002-14.429zM22.905 34.839h2.927l6.183 14.531h-3.318l-1.319-3.235h-6.1l-1.319 3.235h-3.237l6.183-14.531zm3.339 8.492-1.918-4.678-1.918 4.678h3.836zM33.244 47.269l1.875-2.247a6.608 6.608 0 0 0 4.308 1.753c1.3 0 2.082-.516 2.082-1.36v-.041c0-.8-.494-1.216-2.906-1.835-2.906-.738-4.782-1.546-4.782-4.411v-.04c0-2.617 2.1-4.349 5.05-4.349a8.352 8.352 0 0 1 5.359 1.835l-1.649 2.39a6.764 6.764 0 0 0-3.75-1.422c-1.216 0-1.856.556-1.856 1.257v.04c0 .949.618 1.257 3.113 1.9 2.927.763 4.574 1.813 4.574 4.329v.041c0 2.865-2.184 4.472-5.3 4.472a9.174 9.174 0 0 1-6.118-2.312zM50.685 37.869h-4.391v-2.927h11.95v2.927h-4.391v11.508H50.68l.005-11.508zM60.506 34.942h3.175V49.37h-3.174l-.001-14.428zM66.598 42.198v-.041a7.4 7.4 0 0 1 7.347-7.462h.217a7.92 7.92 0 0 1 5.667 1.978l-2 2.412a5.317 5.317 0 0 0-3.772-1.464 4.335 4.335 0 0 0-4.141 4.494v.04a4.323 4.323 0 0 0 4.365 4.573 5.067 5.067 0 0 0 2.989-.865v-2.065h-3.191v-2.741h6.264v6.27a9.36 9.36 0 0 1-6.163 2.288 7.216 7.216 0 0 1-7.582-7.417zM83.59 34.943h6.595a5.76 5.76 0 0 1 4.2 1.464 4.533 4.533 0 0 1 1.236 3.3v.041a4.48 4.48 0 0 1-3.1 4.473l3.525 5.152h-3.709l-3.1-4.616h-2.495v4.616h-3.16l.008-14.43zm6.388 7.008c1.546 0 2.433-.825 2.433-2.04v-.041c0-1.359-.949-2.065-2.495-2.065h-3.153v4.143l3.215.003zM103.83 34.839h2.927l6.183 14.531h-3.318l-1.319-3.235h-6.1l-1.319 3.235h-3.237l6.183-14.531zm3.339 8.492-1.918-4.678-1.918 4.678h3.836zM115.034 34.942h3.421l3.792 6.1 3.793-6.1h3.421V49.37h-3.154v-9.419l-4.06 6.163h-.083l-4.019-6.1v9.357h-3.111V34.942zM136.205 43.538h-3.731v-2.843h3.731v-3.709h2.927v3.709h3.731v2.843h-3.733v3.709h-2.927l.002-3.709zM.794 20.819h3.219a2.91 2.91 0 0 1 2.082.721 2.178 2.178 0 0 1 .6 1.556v.021a2.164 2.164 0 0 1-1.711 2.186l1.951 2.734h-1.5l-1.77-2.515H2.077v2.515H.808l-.014-7.218zm3.125 3.578c.907 0 1.484-.475 1.484-1.207v-.021c0-.773-.556-1.2-1.495-1.2H2.062v2.423l1.857.005zM11.051 20.766h1.18l3.175 7.271h-1.341l-.738-1.742H9.914l-.738 1.742h-1.3l3.175-7.271zm1.815 4.4-1.248-2.887-1.236 2.887h2.484zM16.619 20.819h2.846a2.426 2.426 0 0 1 2.722 2.082c.014.11.021.22.021.33v.021c0 1.623-1.3 2.465-2.887 2.465h-1.433v2.321h-1.269v-7.219zm2.743 3.752c.959 0 1.557-.536 1.557-1.289v-.021c0-.845-.608-1.289-1.557-1.289h-1.475v2.6l1.475-.001zM23.564 20.819h1.267v7.217h-1.267v-7.217zM26.808 20.82h2.691a3.6 3.6 0 0 1 3.829 3.351c0 .08.007.158.007.238v.021a3.613 3.613 0 0 1-3.61 3.616c-.075 0-.151 0-.226-.007h-2.691V20.82zm1.269 1.154v4.909h1.422a2.36 2.36 0 0 0 2.505-2.207c0-.075.006-.151 0-.227v-.021a2.37 2.37 0 0 0-2.279-2.455h-.229l-1.419.001z" fill="#FAFDFF"/><path d="M20.206 3.352h1.552v-2.08l2.3-1.275v3.355h2.476V5.41h-2.476v3.951a1.215 1.215 0 0 0 .282.946.972.972 0 0 0 .723.263 1.27 1.27 0 0 0 .851-.341l1.087 1.86c-.647.452-1.42.69-2.21.677a2.854 2.854 0 0 1-2.328-.938 3.371 3.371 0 0 1-.7-2.43V5.41h-1.552l-.005-2.058zM27.136 10.502l2.145-.867a2.235 2.235 0 0 0 2.223 1.142c.909 0 1.5-.353 1.5-.927a.638.638 0 0 0-.471-.592 11.502 11.502 0 0 0-1.791-.423 4.272 4.272 0 0 1-2.7-1.242 2.378 2.378 0 0 1-.5-1.57c0-1.582 1.433-2.9 3.764-2.887a4.261 4.261 0 0 1 3.951 1.965l-2.147.869a1.949 1.949 0 0 0-1.86-.842c-.837 0-1.344.35-1.344.825 0 .235.146.4.425.53a9.952 9.952 0 0 0 1.707.4c1.533.291 3.337.863 3.337 2.844 0 1.436-1.276 3.058-3.95 3.041-2.185.003-3.557-.797-4.289-2.266zM8.546 3.355l-2.6 4.691-2.6-4.691H.754l5.192 9.366 5.192-9.366H8.546zM43.353 9.054a2.552 2.552 0 0 1-2.368 1.577 2.6 2.6 0 0 1-2.588-2.679 2.6 2.6 0 0 1 2.588-2.681 2.554 2.554 0 0 1 2.368 1.577l2.125-.832a4.826 4.826 0 0 0-4.492-2.881 4.786 4.786 0 0 0-4.885 4.817 4.788 4.788 0 0 0 4.885 4.817 4.824 4.824 0 0 0 4.492-2.883l-2.125-.832zM53.547 3.362v.721a4.528 4.528 0 0 0-2.785-.944 4.656 4.656 0 0 0-4.619 4.817 4.66 4.66 0 0 0 4.619 4.817 4.537 4.537 0 0 0 2.785-.944v.73h2.266v-9.2l-2.266.003zm-2.52 7.29a2.607 2.607 0 0 1-2.588-2.7 2.607 2.607 0 0 1 2.588-2.7 2.608 2.608 0 0 1 2.589 2.7 2.609 2.609 0 0 1-2.589 2.695v.005zM15.372 10.663a2.628 2.628 0 0 1-2.673-2.712 2.626 2.626 0 0 1 2.592-2.713 2.544 2.544 0 0 1 2.381 1.633h.019c.013.035-.013.019-.016.012v-.012h-3.274l-1.065 1.921h6.769a4.79 4.79 0 0 0-4.845-5.658 4.769 4.769 0 0 0-4.85 4.817 4.792 4.792 0 0 0 4.965 4.817 4.91 4.91 0 0 0 4.386-2.515l-2.133-.835a2.6 2.6 0 0 1-2.256 1.245zM65.735 7.21a4.016 4.016 0 0 0-1.071-3.023 3.718 3.718 0 0 0-2.678-1.052c-.945 0-1.86.334-2.582.944v-.724h-2.269v9.194h2.3v-5.1a2.115 2.115 0 0 1 .59-1.661 1.973 1.973 0 0 1 1.413-.534 1.959 1.959 0 0 1 1.438.562 2.143 2.143 0 0 1 .565 1.633v5.1h2.3l-.006-5.339z" fill="#fff"/></svg>