<svg xmlns="http://www.w3.org/2000/svg" width="134" height="76.362"><g data-name="Group 1193"><g data-name="Group 1192"><g data-name="Group 1191"><g data-name="Group 207"><g data-name="Group 205" fill="#231f20"><g data-name="Group 202"><path data-name="Path 37" d="M.173 31.012H3.21l3.367 5.414 3.365-5.414h3.037v12.8h-2.8v-8.359l-3.6 5.469h-.073l-3.568-5.415v8.3H.176z"/><path data-name="Path 38" d="M20.331 30.921h2.6l5.488 12.9h-2.945l-1.171-2.872h-5.415l-1.171 2.872h-2.873zm2.963 7.537-1.7-4.152-1.7 4.152z"/><path data-name="Path 39" d="m29.507 41.948 1.664-1.994a5.863 5.863 0 0 0 3.824 1.556c1.152 0 1.848-.458 1.848-1.207v-.037c0-.712-.439-1.079-2.58-1.629-2.58-.655-4.244-1.372-4.244-3.915v-.035c0-2.323 1.866-3.86 4.482-3.86a7.415 7.415 0 0 1 4.756 1.629l-1.464 2.121a6.007 6.007 0 0 0-3.329-1.262c-1.079 0-1.647.494-1.647 1.116v.035c0 .842.549 1.116 2.763 1.683 2.6.677 4.059 1.609 4.059 3.842v.037c0 2.543-1.938 3.969-4.7 3.969a8.141 8.141 0 0 1-5.432-2.049z"/><path data-name="Path 40" d="M44.982 33.61h-3.9v-2.6h10.606v2.6h-3.9v10.214h-2.817z"/><path data-name="Path 41" d="M53.703 31.012h2.818v12.8h-2.817z"/><path data-name="Path 42" d="M59.11 37.452v-.037a6.571 6.571 0 0 1 6.52-6.623h.194a7.036 7.036 0 0 1 5.03 1.756l-1.774 2.141a4.72 4.72 0 0 0-3.348-1.3 3.846 3.846 0 0 0-3.676 3.989v.035a3.837 3.837 0 0 0 3.606 4.054 3.5 3.5 0 0 0 .271.005 4.5 4.5 0 0 0 2.653-.767v-1.833h-2.829v-2.435h5.56v5.561a8.31 8.31 0 0 1-5.47 2.031 6.408 6.408 0 0 1-6.728-6.072 4.463 4.463 0 0 1-.009-.505z"/><path data-name="Path 43" d="M74.19 31.012h5.853a5.114 5.114 0 0 1 3.732 1.3 4.027 4.027 0 0 1 1.1 2.927v.037a3.978 3.978 0 0 1-2.75 3.97l3.128 4.573h-3.292l-2.75-4.1h-2.214v4.1h-2.8zm5.67 6.22c1.372 0 2.159-.732 2.159-1.811l.007-.032c0-1.206-.842-1.833-2.214-1.833h-2.8v3.677z"/><path data-name="Path 44" d="M92.151 30.921h2.6l5.488 12.9h-2.945l-1.171-2.872h-5.415l-1.171 2.872h-2.873zm2.963 7.537-1.7-4.152-1.7 4.152z"/><path data-name="Path 45" d="M102.1 31.012h3.037l3.365 5.414 3.367-5.414h3.037v12.8h-2.8v-8.359l-3.6 5.469h-.073l-3.567-5.415v8.3h-2.763z"/><path data-name="Path 46" d="M120.889 38.641h-3.315V36.12h3.312v-3.292h2.6v3.292h3.312v2.523h-3.313v3.292h-2.6z"/></g><g data-name="Group 203"><path data-name="Path 47" d="M.706 18.477h2.857a2.582 2.582 0 0 1 1.848.64 1.939 1.939 0 0 1 .53 1.381v.018a1.922 1.922 0 0 1-1.519 1.941l1.731 2.426H4.817L3.246 22.65H1.837v2.233H.711zm2.773 3.175c.805 0 1.317-.422 1.317-1.071v-.018c0-.686-.494-1.062-1.326-1.062H1.832v2.15z"/><path data-name="Path 48" d="M9.809 18.43h1.048l2.818 6.453h-1.19l-.655-1.546H8.801l-.655 1.546H6.994zm1.611 3.909-1.108-2.563-1.1 2.563z"/><path data-name="Path 49" d="M14.751 18.478h2.526a2.15 2.15 0 0 1 2.415 1.848 2.193 2.193 0 0 1 .02.293v.018c0 1.44-1.154 2.188-2.563 2.188h-1.274v2.06h-1.126zm2.434 3.33c.851 0 1.381-.475 1.381-1.144v-.018c0-.75-.539-1.144-1.381-1.144l-1.31 6.407v2.306z"/><path data-name="Path 50" d="M20.918 18.477h1.125v6.406h-1.125z"/><path data-name="Path 51" d="M23.797 18.477h2.388a3.192 3.192 0 0 1 3.4 2.974c.005.071.008.14.008.211v.018a3.207 3.207 0 0 1-3.205 3.209c-.067 0-.134 0-.2-.007H23.8zm1.126 1.024v4.356h1.262a2.094 2.094 0 0 0 2.222-1.959 1.335 1.335 0 0 0 0-.2v-.018a2.1 2.1 0 0 0-2.023-2.179h-.2z"/></g><g data-name="Group 204"><path data-name="Path 52" d="M.807 55.066v-2.544H.193v-.952h.614v-1.326h1.108v1.326h1.3v.952h-1.3v2.37a.523.523 0 0 0 .431.6.491.491 0 0 0 .164 0 1.483 1.483 0 0 0 .687-.165v.906a1.9 1.9 0 0 1-1 .247 1.239 1.239 0 0 1-1.4-1.059 1.22 1.22 0 0 1 .01-.355z"/><path data-name="Path 53" d="M3.934 54.004v-.018a2.4 2.4 0 0 1 2.274-2.514h.082a2.338 2.338 0 0 1 2.329 2.345 2.336 2.336 0 0 1-.014.254c0 .1-.009.2-.018.31H5.036a1.346 1.346 0 0 0 1.391 1.226 1.757 1.757 0 0 0 1.309-.576l.655.576a2.445 2.445 0 0 1-1.976.906 2.41 2.41 0 0 1-2.483-2.336 2.473 2.473 0 0 1 .002-.173zm3.577-.357a1.255 1.255 0 0 0-1.226-1.273 1.31 1.31 0 0 0-1.253 1.273z"/><path data-name="Path 54" d="m9.317 55.771.494-.75a2.721 2.721 0 0 0 1.584.594c.475 0 .749-.2.749-.524v-.018c0-.376-.512-.5-1.079-.678-.714-.2-1.51-.494-1.51-1.409v-.018a1.542 1.542 0 0 1 1.591-1.491c.043 0 .086 0 .13.009a3.362 3.362 0 0 1 1.776.549l-.439.786a2.819 2.819 0 0 0-1.363-.457c-.431 0-.677.211-.677.477v.025c0 .357.524.5 1.089.686.7.22 1.5.539 1.5 1.409v.018c0 1.016-.786 1.519-1.793 1.519a3.334 3.334 0 0 1-2.052-.727z"/><path data-name="Path 55" d="M14.514 55.066v-2.544H13.9v-.952h.614v-1.326h1.108v1.326h1.3v.952h-1.3v2.37a.523.523 0 0 0 .431.6.49.49 0 0 0 .164 0 1.483 1.483 0 0 0 .687-.165v.906a1.9 1.9 0 0 1-1 .247 1.239 1.239 0 0 1-1.4-1.059 1.22 1.22 0 0 1 .01-.355z"/></g></g></g><g data-name="Group 1190" fill="#f65c00"><path data-name="Path 753" d="M17.935 2.978h1.376V1.132L21.35.001v2.978h2.2v1.827h-2.2v3.507a1.073 1.073 0 0 0 .25.839.864.864 0 0 0 .642.233 1.131 1.131 0 0 0 .756-.3l.965 1.651a3.33 3.33 0 0 1-1.963.6 2.537 2.537 0 0 1-2.066-.831 3 3 0 0 1-.622-2.158V4.808h-1.376z"/><path data-name="Path 754" d="m24.081 9.321 1.905-.77a1.982 1.982 0 0 0 1.973 1.013c.807 0 1.326-.313 1.326-.822a.567.567 0 0 0-.416-.525 10.208 10.208 0 0 0-1.591-.375 3.8 3.8 0 0 1-2.394-1.1 2.111 2.111 0 0 1-.448-1.393c0-1.4 1.273-2.578 3.34-2.563a3.779 3.779 0 0 1 3.507 1.744l-1.9.771a1.731 1.731 0 0 0-1.651-.748c-.744 0-1.194.31-1.194.732 0 .208.13.357.377.47a8.712 8.712 0 0 0 1.515.359c1.362.258 2.963.766 2.963 2.525 0 1.274-1.133 2.714-3.507 2.7-1.932-.004-3.15-.718-3.805-2.018z"/><path data-name="Path 755" d="M7.585 2.978 5.277 7.141 2.969 2.978h-2.3l4.608 8.313 4.608-8.313z"/><path data-name="Path 756" d="M38.479 8.036a2.266 2.266 0 0 1-2.1 1.4 2.306 2.306 0 0 1-2.3-2.378 2.307 2.307 0 0 1 2.3-2.379 2.268 2.268 0 0 1 2.1 1.4l1.886-.739a4.286 4.286 0 0 0-3.989-2.557 4.248 4.248 0 0 0-4.334 4.275 4.248 4.248 0 0 0 4.334 4.275 4.286 4.286 0 0 0 3.989-2.557z"/><path data-name="Path 757" d="M47.525 2.981v.64a4.015 4.015 0 0 0-2.471-.838 4.133 4.133 0 0 0-4.1 4.275 4.133 4.133 0 0 0 4.1 4.275 4.023 4.023 0 0 0 2.471-.838v.648h2.011V2.981zm-2.235 6.47a2.316 2.316 0 0 1-2.3-2.392 2.315 2.315 0 0 1 2.3-2.392 2.314 2.314 0 0 1 2.3 2.392 2.465 2.465 0 0 1-2.3 2.392z"/><path data-name="Path 758" d="M13.643 9.466a2.331 2.331 0 0 1-2.371-2.407 2.331 2.331 0 0 1 2.3-2.408 2.254 2.254 0 0 1 2.112 1.451h.017c.013.03-.01.016-.013.009v-.009h-2.9l-.945 1.7h6.008a4.253 4.253 0 0 0-4.3-5.022 4.234 4.234 0 0 0-4.305 4.275 4.255 4.255 0 0 0 4.408 4.275 4.355 4.355 0 0 0 3.892-2.233l-1.892-.741a2.309 2.309 0 0 1-2.011 1.11z"/><path data-name="Path 759" d="M58.342 6.4a3.559 3.559 0 0 0-.951-2.683 3.3 3.3 0 0 0-2.377-.934 3.538 3.538 0 0 0-2.29.838v-.643h-2.015v8.16h2.039V6.615a1.878 1.878 0 0 1 .525-1.474 1.744 1.744 0 0 1 1.253-.473 1.738 1.738 0 0 1 1.278.5 1.91 1.91 0 0 1 .5 1.45v4.523h2.039L58.342 6.4z"/></g></g><g data-name="Group 251"><g data-name="Group 209" fill="#231f20"><path data-name="Path 56" d="m8.902 74.204.513.732a4.812 4.812 0 0 1-3.335 1.426c-2.531 0-2.692-1.871-5.21-1.871H.133l-.132-.761 2.849-2.9H.638l.17-.893h3.619l-.157.822-2.763 2.822c2.121 0 2.64 1.913 4.719 1.913a3.98 3.98 0 0 0 2.676-1.29z"/><path data-name="Path 57" d="M7.007 69.835a2.727 2.727 0 0 0-2.631 2.818v.06a1.771 1.771 0 0 0 1.652 1.879 1.607 1.607 0 0 0 .21 0 2.725 2.725 0 0 0 2.639-2.807v-.065a1.783 1.783 0 0 0-1.675-1.884 1.937 1.937 0 0 0-.195-.001zm-.617 3.92c-.554 0-.888-.439-.888-1.067 0-.851.505-2.013 1.375-2.013.665 0 .869.581.869 1.049 0 .907-.542 2.031-1.355 2.031z"/><path data-name="Path 58" d="M13.465 71.116a1.308 1.308 0 0 0-1.323-1.291 1.4 1.4 0 0 0-.148.01 2.776 2.776 0 0 0-2.58 2.873 1.717 1.717 0 0 0 1.528 1.888 1.764 1.764 0 0 0 .343 0 3.711 3.711 0 0 0 1.612-.364l-.1-.794a2.657 2.657 0 0 1-1.252.3 1.014 1.014 0 0 1-.936-.467 1.271 1.271 0 0 1-.122-.648c1.754.04 2.978-.335 2.978-1.507zm-1.607-.467c.346 0 .58.179.58.467v.009c0 .543-.719.7-1.842.686a1.4 1.4 0 0 1 1.263-1.162z"/><path data-name="Path 59" d="M20.976 70.649a1.8 1.8 0 0 1 .851.206l.284-.784a2.262 2.262 0 0 0-1.078-.236c-1.078 0-1.842.615-1.842 1.5a1.406 1.406 0 0 0 .9 1.186c.449.23.6.411.6.7s-.259.554-.7.563a2.557 2.557 0 0 1-1.1-.309l-.279.784a2.412 2.412 0 0 0 1.271.335c1.1 0 1.938-.562 1.938-1.565a1.474 1.474 0 0 0-.945-1.223c-.381-.2-.589-.373-.589-.629.001-.302.279-.528.689-.528z"/><g data-name="Group 208"><path data-name="Path 60" d="M17.783 68.711a.648.648 0 0 1 .63-.666h.026a.565.565 0 0 1 .581.549.223.223 0 0 1 0 .042.649.649 0 0 1-.643.656.276.276 0 0 1-.033 0h-.014a.545.545 0 0 1-.549-.542.355.355 0 0 1 .002-.039z"/><path data-name="Path 61" d="M16.755 74.49h1.086l.869-4.554h-1.082z"/></g><path data-name="Path 62" d="M15.599 73.721c-.321 0-.487-.2-.41-.6l.462-2.337h1.02l.17-.841h-1.028l.227-1.168-1.123.326-.17.842h-.638l-.166.841h.638l-.473 2.4c-.165.864.27 1.409 1.266 1.409a2.986 2.986 0 0 0 .712-.114l.039-.846a1.936 1.936 0 0 1-.526.088z"/></g></g></g><text transform="translate(126 33.682)" font-size="5" font-family="Gotham-Medium, Gotham" font-weight="500" data-name="Group 1194"><tspan x="0" y="0">TM</tspan></text></g></svg>