<svg xmlns="http://www.w3.org/2000/svg" width="60.784" height="22.885"><g data-name="Group 224"><g data-name="Group 209" fill="#fbfbfb"><path data-name="Path 56" d="m24.469 16.949 1.415 2.013a13.237 13.237 0 0 1-9.169 3.923c-6.962 0-7.4-5.144-14.326-5.144H.363L.002 15.65l7.831-7.975h-6.08l.468-2.454h9.949l-.428 2.247-7.6 7.755c5.831 0 7.26 5.26 12.975 5.26 3.494-.013 6.352-2.443 7.352-3.534z"/><path data-name="Path 57" d="M19.26 4.935c-4.273 0-7.221 3.676-7.221 7.923a4.866 4.866 0 0 0 5.117 5.17c4.274 0 7.248-3.65 7.248-7.9a4.9 4.9 0 0 0-5.144-5.193zm-1.689 10.78c-1.52 0-2.442-1.207-2.442-2.935 0-2.338 1.39-5.533 3.78-5.533 1.832 0 2.391 1.6 2.391 2.883.001 2.494-1.494 5.585-3.728 5.585z"/><path data-name="Path 58" d="M37.016 8.454c0-2.077-1.572-3.52-4.04-3.52-4.325 0-7.091 4.118-7.091 7.9 0 3.065 1.676 5.2 5.144 5.2a10.171 10.171 0 0 0 4.429-1l-.286-2.182a7.306 7.306 0 0 1-3.441.818 2.783 2.783 0 0 1-2.572-1.286 3.45 3.45 0 0 1-.343-1.782c4.835.1 8.2-.926 8.2-4.148zM32.6 7.168c.948 0 1.6.494 1.6 1.286v.026c0 1.494-1.974 1.923-5.065 1.884a3.843 3.843 0 0 1 3.464-3.195z"/><path data-name="Path 59" d="M57.666 7.169a4.934 4.934 0 0 1 2.338.572l.779-2.157a6.207 6.207 0 0 0-2.961-.65c-2.962 0-5.066 1.7-5.066 4.118 0 1.441 1.027 2.493 2.468 3.26 1.234.636 1.65 1.13 1.65 1.922 0 .819-.714 1.52-1.923 1.546a7.019 7.019 0 0 1-3.013-.844l-.767 2.155a6.623 6.623 0 0 0 3.494.922c3.013 0 5.324-1.546 5.324-4.3 0-1.6-1.233-2.624-2.6-3.364-1.052-.545-1.623-1.026-1.623-1.727.004-.83.77-1.453 1.9-1.453z"/><g data-name="Group 208"><path data-name="Path 60" d="M48.887 1.831A1.783 1.783 0 0 1 50.687 0a1.555 1.555 0 0 1 1.6 1.623 1.789 1.789 0 0 1-1.858 1.806h-.039a1.5 1.5 0 0 1-1.503-1.598z"/><path data-name="Path 61" d="M46.066 17.741h2.987l2.39-12.521h-2.977z"/></g><path data-name="Path 62" d="M42.886 15.628c-.884 0-1.338-.545-1.117-1.663l1.272-6.428h2.806l.467-2.312h-2.831l.624-3.209-3.091.9-.467 2.313h-1.754l-.454 2.312h1.753l-1.3 6.61c-.454 2.377.74 3.87 3.481 3.87a8.087 8.087 0 0 0 1.96-.311l.1-2.325a5.253 5.253 0 0 1-1.449.243z"/></g></g></svg>